<svg width="17" height="16" viewBox="0 0 17 16" fill="none" xmlns="http://www.w3.org/2000/svg">
<path d="M6.55973 6.00066C6.71647 5.55511 7.02583 5.1794 7.43304 4.94009C7.84024 4.70077 8.319 4.61329 8.78452 4.69314C9.25004 4.77299 9.67228 5.01501 9.97645 5.37635C10.2806 5.73769 10.4471 6.19501 10.4464 6.66733C10.4464 8.00066 8.4464 8.66733 8.4464 8.66733M8.49967 11.334H8.50634M15.1663 8.00065C15.1663 11.6826 12.1816 14.6673 8.49967 14.6673C4.81778 14.6673 1.83301 11.6826 1.83301 8.00065C1.83301 4.31875 4.81778 1.33398 8.49967 1.33398C12.1816 1.33398 15.1663 4.31875 15.1663 8.00065Z" stroke="#71717A" stroke-width="1.33" stroke-linecap="round" stroke-linejoin="round"/>
</svg>
