<svg width="17" height="20" viewBox="0 0 17 20" fill="none" xmlns="http://www.w3.org/2000/svg">
<path d="M2.35742 11.5C2.35742 12.3667 2.53242 13.1877 2.88242 13.963C3.23242 14.7383 3.73242 15.4173 4.38242 16C4.36575 15.9167 4.35742 15.8417 4.35742 15.775V15.55C4.35742 15.0167 4.45742 14.5167 4.65742 14.05C4.85742 13.5833 5.14909 13.1583 5.53242 12.775L8.35742 10L11.1824 12.775C11.5658 13.1583 11.8574 13.5833 12.0574 14.05C12.2574 14.5167 12.3574 15.0167 12.3574 15.55V15.775C12.3574 15.8417 12.3491 15.9167 12.3324 16C12.9824 15.4167 13.4824 14.7377 13.8324 13.963C14.1824 13.1883 14.3574 12.3673 14.3574 11.5C14.3574 10.6667 14.2034 9.879 13.8954 9.137C13.5874 8.395 13.1414 7.73267 12.5574 7.15C12.2241 7.36667 11.8741 7.52933 11.5074 7.638C11.1408 7.74667 10.7658 7.80067 10.3824 7.8C9.34909 7.8 8.45309 7.45833 7.69442 6.775C6.93576 6.09167 6.49876 5.25 6.38342 4.25C5.73276 4.8 5.15742 5.371 4.65742 5.963C4.15742 6.555 3.73642 7.155 3.39442 7.763C3.05309 8.371 2.79509 8.99167 2.62042 9.625C2.44576 10.2583 2.35809 10.8833 2.35742 11.5ZM8.35742 12.8L6.93242 14.2C6.74909 14.3833 6.60742 14.5917 6.50742 14.825C6.40742 15.0583 6.35742 15.3 6.35742 15.55C6.35742 16.0833 6.55309 16.5417 6.94442 16.925C7.33576 17.3083 7.80676 17.5 8.35742 17.5C8.90742 17.5 9.37809 17.3083 9.76942 16.925C10.1608 16.5417 10.3568 16.0833 10.3574 15.55C10.3574 15.2833 10.3074 15.0377 10.2074 14.813C10.1074 14.5883 9.96576 14.384 9.78242 14.2L8.35742 12.8ZM8.35742 0.5V3.8C8.35742 4.36667 8.55342 4.84167 8.94542 5.225C9.33742 5.60833 9.81642 5.8 10.3824 5.8C10.6824 5.8 10.9618 5.73767 11.2204 5.613C11.4791 5.48833 11.7081 5.30067 11.9074 5.05L12.3574 4.5C13.5908 5.2 14.5658 6.175 15.2824 7.425C15.9991 8.675 16.3574 10.0333 16.3574 11.5C16.3574 13.7333 15.5824 15.625 14.0324 17.175C12.4824 18.725 10.5908 19.5 8.35742 19.5C6.12409 19.5 4.23242 18.725 2.68242 17.175C1.13242 15.625 0.357422 13.7333 0.357422 11.5C0.357422 9.35 1.07809 7.30833 2.51942 5.375C3.96076 3.44167 5.90676 1.81667 8.35742 0.5Z" fill="#DC2626"/>
</svg>
