<svg width="25" height="25" viewBox="0 0 25 25" fill="none" xmlns="http://www.w3.org/2000/svg">
<path d="M20.1324 23.125L1.73242 4.725L3.15742 3.3L12.3574 12.5L21.5574 21.7L20.1324 23.125ZM19.6074 16.875L18.0824 15.35C18.1658 15.05 18.2324 14.7457 18.2824 14.437C18.3324 14.1283 18.3574 13.816 18.3574 13.5C18.3574 12.6667 18.2034 11.879 17.8954 11.137C17.5874 10.395 17.1414 9.73267 16.5574 9.15C16.2241 9.36667 15.8741 9.52933 15.5074 9.638C15.1408 9.74667 14.7658 9.80067 14.3824 9.8C13.3491 9.8 12.4531 9.45833 11.6944 8.775C10.9358 8.09167 10.4988 7.25 10.3834 6.25C10.2501 6.35 10.1251 6.45433 10.0084 6.563C9.89176 6.67167 9.76676 6.784 9.63342 6.9L8.20742 5.475C8.79076 4.90833 9.42842 4.37933 10.1204 3.888C10.8124 3.39667 11.5581 2.934 12.3574 2.5V5.8C12.3574 6.36667 12.5534 6.84167 12.9454 7.225C13.3374 7.60833 13.8164 7.8 14.3824 7.8C14.6824 7.8 14.9618 7.73333 15.2204 7.6C15.4791 7.46667 15.7081 7.28333 15.9074 7.05L16.3574 6.5C17.5908 7.2 18.5658 8.175 19.2824 9.425C19.9991 10.675 20.3574 12.0333 20.3574 13.5C20.3574 14.1 20.2951 14.6833 20.1704 15.25C20.0458 15.8167 19.8581 16.3583 19.6074 16.875ZM12.3574 21.5C10.1241 21.5 8.23242 20.725 6.68242 19.175C5.13242 17.625 4.35742 15.7333 4.35742 13.5C4.35742 12.35 4.56976 11.229 4.99442 10.137C5.41909 9.045 6.03175 7.99933 6.83242 7L8.25742 8.425C7.62409 9.25833 7.14909 10.1 6.83242 10.95C6.51576 11.8 6.35742 12.65 6.35742 13.5C6.35742 14.3667 6.53242 15.1877 6.88242 15.963C7.23242 16.7383 7.73242 17.4173 8.38242 18C8.36575 17.9167 8.35742 17.8417 8.35742 17.775V17.55C8.35742 17.0167 8.45742 16.5167 8.65742 16.05C8.85742 15.5833 9.14909 15.1583 9.53242 14.775L12.1074 12.275L13.5324 13.7L10.9324 16.2C10.7491 16.3833 10.6074 16.5917 10.5074 16.825C10.4074 17.0583 10.3574 17.3 10.3574 17.55C10.3574 18.0833 10.5534 18.5417 10.9454 18.925C11.3374 19.3083 11.8081 19.5 12.3574 19.5C12.9074 19.5 13.3784 19.3083 13.7704 18.925C14.1624 18.5417 14.3581 18.0833 14.3574 17.55C14.3574 17.2833 14.3034 17.0417 14.1954 16.825C14.0874 16.6083 13.9414 16.4083 13.7574 16.225L14.9074 15.075L18.4824 18.65C17.7324 19.5333 16.8368 20.2293 15.7954 20.738C14.7541 21.2467 13.6081 21.5007 12.3574 21.5Z" fill="#257CCC"/>
<path d="M20.1324 23.1258L1.73242 4.72578L3.15742 3.30078L12.3574 12.5008L21.5574 21.7008L20.1324 23.1258Z" fill="#030712"/>
</svg>
