<svg width="21" height="22" viewBox="0 0 21 22" fill="none" xmlns="http://www.w3.org/2000/svg">
<path d="M19.1324 21.125L0.732422 2.725L2.15742 1.3L11.3574 10.5L20.5574 19.7L19.1324 21.125ZM18.6074 14.875L17.0824 13.35C17.1658 13.05 17.2324 12.7457 17.2824 12.437C17.3324 12.1283 17.3574 11.816 17.3574 11.5C17.3574 10.6667 17.2034 9.879 16.8954 9.137C16.5874 8.395 16.1414 7.73267 15.5574 7.15C15.2241 7.36667 14.8741 7.52933 14.5074 7.638C14.1408 7.74667 13.7658 7.80067 13.3824 7.8C12.3491 7.8 11.4531 7.45833 10.6944 6.775C9.93575 6.09167 9.49876 5.25 9.38342 4.25C9.25009 4.35 9.12509 4.45433 9.00842 4.563C8.89176 4.67167 8.76676 4.784 8.63342 4.9L7.20742 3.475C7.79076 2.90833 8.42842 2.37933 9.12042 1.888C9.81242 1.39667 10.5581 0.934 11.3574 0.5V3.8C11.3574 4.36667 11.5534 4.84167 11.9454 5.225C12.3374 5.60833 12.8164 5.8 13.3824 5.8C13.6824 5.8 13.9618 5.73333 14.2204 5.6C14.4791 5.46667 14.7081 5.28333 14.9074 5.05L15.3574 4.5C16.5908 5.2 17.5658 6.175 18.2824 7.425C18.9991 8.675 19.3574 10.0333 19.3574 11.5C19.3574 12.1 19.2951 12.6833 19.1704 13.25C19.0458 13.8167 18.8581 14.3583 18.6074 14.875ZM11.3574 19.5C9.12409 19.5 7.23242 18.725 5.68242 17.175C4.13242 15.625 3.35742 13.7333 3.35742 11.5C3.35742 10.35 3.56976 9.229 3.99442 8.137C4.41909 7.045 5.03175 5.99933 5.83242 5L7.25742 6.425C6.62409 7.25833 6.14909 8.1 5.83242 8.95C5.51576 9.8 5.35742 10.65 5.35742 11.5C5.35742 12.3667 5.53242 13.1877 5.88242 13.963C6.23242 14.7383 6.73242 15.4173 7.38242 16C7.36575 15.9167 7.35742 15.8417 7.35742 15.775V15.55C7.35742 15.0167 7.45742 14.5167 7.65742 14.05C7.85742 13.5833 8.14909 13.1583 8.53242 12.775L11.1074 10.275L12.5324 11.7L9.93242 14.2C9.74909 14.3833 9.60742 14.5917 9.50742 14.825C9.40742 15.0583 9.35742 15.3 9.35742 15.55C9.35742 16.0833 9.55342 16.5417 9.94542 16.925C10.3374 17.3083 10.8081 17.5 11.3574 17.5C11.9074 17.5 12.3784 17.3083 12.7704 16.925C13.1624 16.5417 13.3581 16.0833 13.3574 15.55C13.3574 15.2833 13.3034 15.0417 13.1954 14.825C13.0874 14.6083 12.9414 14.4083 12.7574 14.225L13.9074 13.075L17.4824 16.65C16.7324 17.5333 15.8368 18.2293 14.7954 18.738C13.7541 19.2467 12.6081 19.5007 11.3574 19.5Z" fill="#257CCC"/>
</svg>
